<mxfile host="app.diagrams.net" modified="2023-12-07T13:45:54.095Z" agent="Mozilla/5.0 (Windows NT 10.0; Win64; x64) AppleWebKit/537.36 (KHTML, like Gecko) Chrome/120.0.0.0 Safari/537.36" etag="CIH9dO4WvBi_BBBSJXzm" version="22.1.7" type="device">
  <diagram name="Page-1" id="RQmY1mNynuE0A5LYX6--">
    <mxGraphModel dx="2543" dy="1167" grid="1" gridSize="10" guides="1" tooltips="1" connect="1" arrows="1" fold="1" page="1" pageScale="1" pageWidth="850" pageHeight="1100" math="0" shadow="0">
      <root>
        <mxCell id="0" />
        <mxCell id="1" parent="0" />
        <mxCell id="4f2O1eUe3Ldj20JGAAHG-1" style="edgeStyle=orthogonalEdgeStyle;rounded=0;orthogonalLoop=1;jettySize=auto;html=1;exitX=1;exitY=0.3333333333333333;exitDx=0;exitDy=0;exitPerimeter=0;entryX=0;entryY=0.5;entryDx=0;entryDy=0;" edge="1" parent="1" source="UgfkkMcgBF_Cg5-o9AfL-1" target="UgfkkMcgBF_Cg5-o9AfL-8">
          <mxGeometry relative="1" as="geometry" />
        </mxCell>
        <mxCell id="4f2O1eUe3Ldj20JGAAHG-4" style="edgeStyle=orthogonalEdgeStyle;rounded=0;orthogonalLoop=1;jettySize=auto;html=1;exitX=1;exitY=1;exitDx=0;exitDy=0;exitPerimeter=0;entryX=0;entryY=0.5;entryDx=0;entryDy=0;" edge="1" parent="1" source="UgfkkMcgBF_Cg5-o9AfL-1" target="UgfkkMcgBF_Cg5-o9AfL-9">
          <mxGeometry relative="1" as="geometry" />
        </mxCell>
        <mxCell id="UgfkkMcgBF_Cg5-o9AfL-1" value="User" style="shape=umlActor;verticalLabelPosition=bottom;verticalAlign=top;html=1;" parent="1" vertex="1">
          <mxGeometry x="-100" y="50" width="30" height="60" as="geometry" />
        </mxCell>
        <mxCell id="UgfkkMcgBF_Cg5-o9AfL-2" value="" style="html=1;whiteSpace=wrap;" parent="1" vertex="1">
          <mxGeometry x="200" y="30" width="500" height="1020" as="geometry" />
        </mxCell>
        <mxCell id="4f2O1eUe3Ldj20JGAAHG-8" style="edgeStyle=orthogonalEdgeStyle;rounded=0;orthogonalLoop=1;jettySize=auto;html=1;exitX=0.5;exitY=1;exitDx=0;exitDy=0;" edge="1" parent="1" source="UgfkkMcgBF_Cg5-o9AfL-7" target="UgfkkMcgBF_Cg5-o9AfL-11">
          <mxGeometry relative="1" as="geometry" />
        </mxCell>
        <mxCell id="UgfkkMcgBF_Cg5-o9AfL-7" value="Enter Date Due" style="ellipse;whiteSpace=wrap;html=1;" parent="1" vertex="1">
          <mxGeometry x="500" y="470" width="140" height="70" as="geometry" />
        </mxCell>
        <mxCell id="4f2O1eUe3Ldj20JGAAHG-2" style="edgeStyle=orthogonalEdgeStyle;rounded=0;orthogonalLoop=1;jettySize=auto;html=1;exitX=1;exitY=0.5;exitDx=0;exitDy=0;entryX=0;entryY=0.5;entryDx=0;entryDy=0;" edge="1" parent="1" source="UgfkkMcgBF_Cg5-o9AfL-8" target="UgfkkMcgBF_Cg5-o9AfL-13">
          <mxGeometry relative="1" as="geometry" />
        </mxCell>
        <mxCell id="UgfkkMcgBF_Cg5-o9AfL-8" value="Signup" style="ellipse;whiteSpace=wrap;html=1;" parent="1" vertex="1">
          <mxGeometry x="230" y="80" width="140" height="70" as="geometry" />
        </mxCell>
        <mxCell id="4f2O1eUe3Ldj20JGAAHG-5" style="edgeStyle=orthogonalEdgeStyle;rounded=0;orthogonalLoop=1;jettySize=auto;html=1;exitX=0.5;exitY=1;exitDx=0;exitDy=0;" edge="1" parent="1" source="UgfkkMcgBF_Cg5-o9AfL-9" target="UgfkkMcgBF_Cg5-o9AfL-10">
          <mxGeometry relative="1" as="geometry" />
        </mxCell>
        <mxCell id="UgfkkMcgBF_Cg5-o9AfL-9" value="Login" style="ellipse;whiteSpace=wrap;html=1;" parent="1" vertex="1">
          <mxGeometry x="240" y="250" width="140" height="70" as="geometry" />
        </mxCell>
        <mxCell id="4f2O1eUe3Ldj20JGAAHG-6" style="edgeStyle=orthogonalEdgeStyle;rounded=0;orthogonalLoop=1;jettySize=auto;html=1;exitX=1;exitY=0.5;exitDx=0;exitDy=0;" edge="1" parent="1" source="UgfkkMcgBF_Cg5-o9AfL-10" target="UgfkkMcgBF_Cg5-o9AfL-7">
          <mxGeometry relative="1" as="geometry" />
        </mxCell>
        <mxCell id="UgfkkMcgBF_Cg5-o9AfL-10" value="Enter water bill" style="ellipse;whiteSpace=wrap;html=1;" parent="1" vertex="1">
          <mxGeometry x="240" y="450" width="140" height="70" as="geometry" />
        </mxCell>
        <mxCell id="4f2O1eUe3Ldj20JGAAHG-10" style="edgeStyle=orthogonalEdgeStyle;rounded=0;orthogonalLoop=1;jettySize=auto;html=1;exitX=0.5;exitY=1;exitDx=0;exitDy=0;entryX=0.5;entryY=0;entryDx=0;entryDy=0;" edge="1" parent="1" source="UgfkkMcgBF_Cg5-o9AfL-11" target="4f2O1eUe3Ldj20JGAAHG-9">
          <mxGeometry relative="1" as="geometry" />
        </mxCell>
        <mxCell id="UgfkkMcgBF_Cg5-o9AfL-11" value="Enter power bill" style="ellipse;whiteSpace=wrap;html=1;" parent="1" vertex="1">
          <mxGeometry x="380" y="630" width="140" height="70" as="geometry" />
        </mxCell>
        <mxCell id="UgfkkMcgBF_Cg5-o9AfL-12" value="Signup successfull" style="ellipse;whiteSpace=wrap;html=1;" parent="1" vertex="1">
          <mxGeometry x="460" y="270" width="140" height="70" as="geometry" />
        </mxCell>
        <mxCell id="4f2O1eUe3Ldj20JGAAHG-3" style="edgeStyle=orthogonalEdgeStyle;rounded=0;orthogonalLoop=1;jettySize=auto;html=1;exitX=0.5;exitY=1;exitDx=0;exitDy=0;" edge="1" parent="1" source="UgfkkMcgBF_Cg5-o9AfL-13" target="UgfkkMcgBF_Cg5-o9AfL-12">
          <mxGeometry relative="1" as="geometry" />
        </mxCell>
        <mxCell id="UgfkkMcgBF_Cg5-o9AfL-13" value="Enter details" style="ellipse;whiteSpace=wrap;html=1;" parent="1" vertex="1">
          <mxGeometry x="460" y="100" width="140" height="70" as="geometry" />
        </mxCell>
        <mxCell id="4f2O1eUe3Ldj20JGAAHG-9" value="Send Message" style="ellipse;whiteSpace=wrap;html=1;" vertex="1" parent="1">
          <mxGeometry x="365" y="740" width="120" height="80" as="geometry" />
        </mxCell>
      </root>
    </mxGraphModel>
  </diagram>
</mxfile>
